<svg width="180" height="180" viewBox="0 0 80 80" fill="none" xmlns="http://www.w3.org/2000/svg">
<path fill-rule="evenodd" clip-rule="evenodd" d="M42.5 0.669873C41.7399 0.231031 40.8777 0 40 0C39.1223 0 38.2601 0.231031 37.5 0.669873L7.5 18.5549C6.73992 18.9937 6.10875 19.6249 5.6699 20.3849C5.23106 21.145 5.00002 22.0072 5 22.8849V57.1149C5.00002 57.9925 5.23106 58.8547 5.6699 59.6148C6.10875 60.3749 6.73992 61.006 7.5 61.4449L37.5 79.3299C38.2601 79.7687 39.1223 79.9997 40 79.9997C40.8777 79.9997 41.7399 79.7687 42.5 79.3299L72.5 61.4449C73.2601 61.006 73.8913 60.3749 74.3301 59.6148C74.7689 58.8547 75 57.9925 75 57.1149V22.8849C75 22.0072 74.7689 21.145 74.3301 20.3849C73.8913 19.6249 73.2601 18.9937 72.5 18.5549L42.5 0.669873Z" fill="#E1E2E4" fill-opacity="0.7"/>
</svg>
