<svg width="160" height="180" viewBox="0 0 80 80" fill="none" xmlns="http://www.w3.org/2000/svg">
<path fill-rule="evenodd" clip-rule="evenodd" d="M31.875 0.502405C31.3049 0.173274 30.6583 0 30 0C29.3417 0 28.6951 0.173274 28.125 0.502405L5.625 13.9162C5.05494 14.2453 4.58156 14.7187 4.25243 15.2887C3.9233 15.8588 3.75002 16.5054 3.75 17.1637V42.8362C3.75002 43.4944 3.9233 44.141 4.25243 44.7111C4.58156 45.2812 5.05494 45.7545 5.625 46.0837L28.125 59.4974C28.6951 59.8265 29.3417 59.9998 30 59.9998C30.6583 59.9998 31.3049 59.8265 31.875 59.4974L54.375 46.0837C54.9451 45.7545 55.4184 45.2812 55.7476 44.7111C56.0767 44.141 56.25 43.4944 56.25 42.8362V17.1637C56.25 16.5054 56.0767 15.8588 55.7476 15.2887C55.4184 14.7187 54.9451 14.2453 54.375 13.9162L31.875 0.502405Z" fill="#E1E2E4" fill-opacity="0.7"/>
</svg>
