<svg width="240" height="280" viewBox="0 0 240 275" fill="none" xmlns="http://www.w3.org/2000/svg">
<path fill-rule="evenodd" clip-rule="evenodd" d="M128.571 2.29671C125.965 0.792108 123.009 0 120 0C116.991 0 114.035 0.792108 111.429 2.29671L8.57143 63.6167C5.96545 65.1213 3.80141 67.2853 2.29682 69.8913C0.792221 72.4972 7.64437e-05 75.4533 0 78.4625V195.822C7.64437e-05 198.832 0.792221 201.788 2.29682 204.394C3.80141 207 5.96545 209.164 8.57143 210.668L111.429 271.988C114.035 273.493 116.991 274.285 120 274.285C123.009 274.285 125.965 273.493 128.571 271.988L231.429 210.668C234.035 209.164 236.199 207 237.703 204.394C239.208 201.788 240 198.832 240 195.822V78.4625C240 75.4533 239.208 72.4972 237.703 69.8913C236.199 67.2853 234.035 65.1213 231.429 63.6167L128.571 2.29671Z" fill="#FFCC00"/>
</svg>
