<svg width="100" height="55" viewBox="0 0 140 80" fill="none" xmlns="http://www.w3.org/2000/svg">
<path d="M64.4256 36.4093C65.4457 36.3844 66.4144 35.9569 67.1204 35.2203C67.8264 34.4837 68.2123 33.4977 68.1938 32.4775C68.1941 31.9721 68.0928 31.4717 67.8959 31.0061C67.699 30.5406 67.4107 30.1193 67.0479 29.7674C66.6851 29.4154 66.2553 29.1399 65.784 28.9573C65.3127 28.7746 64.8095 28.6885 64.3043 28.7041C63.7993 28.7088 63.3003 28.8137 62.8362 29.0125C62.372 29.2113 61.9518 29.5001 61.6 29.8623C61.2481 30.2245 60.9715 30.6528 60.7862 31.1225C60.6008 31.5922 60.5105 32.094 60.5202 32.5989C60.5516 33.6159 60.9761 34.5812 61.7044 35.2918C62.4327 36.0024 63.4081 36.403 64.4256 36.4093V36.4093Z" fill="white"/>
<path d="M126.04 44.9167C125.566 45.271 125.067 45.5903 124.547 45.872C124.044 46.0506 123.531 46.1969 123.011 46.31C122.939 45.7847 122.939 45.252 123.011 44.7267C123.412 43.249 123.924 41.803 124.367 40.3358C124.573 39.6497 124.715 38.9425 124.932 38.0559C123.586 38.0559 122.451 38.0875 121.322 38.0559C120.193 38.0242 119.211 37.9503 118.841 39.3172C118.688 39.2676 118.541 39.2003 118.403 39.1167C114.973 36.0293 108.819 36.9634 107.088 42.7001C106.895 43.3981 106.542 44.0417 106.057 44.5802C105.573 45.1186 104.97 45.5373 104.297 45.8033C103.827 45.9715 103.34 46.0848 102.845 46.1411C102.794 45.6469 102.81 45.1481 102.893 44.6581C103.853 41.4916 104.866 38.325 105.859 35.1321C106.386 33.475 106.914 31.8125 107.484 29.8809C105.816 29.8809 104.413 29.9707 103.025 29.8809C101.784 29.7754 101.23 30.2081 100.914 31.4114C100.301 33.7336 99.4728 36.0029 98.8448 38.325C98.7578 38.7283 98.5398 39.0915 98.2247 39.3578C97.9097 39.6242 97.5153 39.7788 97.1032 39.7975C94.7863 40.2197 92.7334 39.6497 90.6857 38.515C85.7881 35.8076 80.8747 38.1034 79.7031 43.5287C79.6239 43.9034 79.5447 44.4365 79.2861 44.5842C77.8727 45.4602 76.39 46.2191 74.853 46.8536C74.3727 47.033 73.3014 46.558 73.0111 46.0778C72.8499 45.7428 72.7631 45.3769 72.7568 45.0052C72.7504 44.6335 72.8245 44.2648 72.9742 43.9245C73.2011 43.4654 74.2672 42.9482 74.6735 43.1276C75.9296 43.6554 76.4362 42.9482 77.0484 42.1777C77.4865 41.6499 77.9615 41.1221 78.4206 40.5944C79.5342 39.2908 79.4392 38.8845 77.8612 38.1192C76.8711 37.6407 75.7873 37.3874 74.6876 37.3775C73.5879 37.3676 72.4997 37.6014 71.5012 38.0621C70.5026 38.5227 69.6185 39.1989 68.9123 40.0419C68.2061 40.8849 67.6954 41.8738 67.4169 42.9376C67.337 43.4274 67.1344 43.8889 66.828 44.2793C66.5217 44.6696 66.1215 44.9761 65.6647 45.17C64.9734 45.4709 64.2451 45.6978 63.5537 45.9458C63.5859 45.2034 63.6723 44.4644 63.8123 43.7345C64.3084 41.8927 64.8678 40.0772 65.4906 38.0717C63.8334 38.0717 62.4296 38.1456 61.0416 38.0453C59.9175 37.9662 59.395 38.3409 59.1522 39.4492C58.6245 41.7555 57.7748 43.7398 55.4104 44.9537C52.4708 46.4683 51.8797 46.405 50.6606 43.3123C50.6448 43.2357 50.6448 43.1567 50.6606 43.0801C50.6923 43.0273 50.7028 42.9746 50.7345 42.9535C51.1936 42.6157 51.6634 42.299 52.1119 41.9507C53.3552 41.0321 54.321 39.7884 54.903 38.3563C55.4849 36.9242 55.6605 35.3593 55.4104 33.8338C55.0252 30.604 53.025 28.5457 50.0379 27.4638C44.887 25.5956 39.9524 26.2025 35.2132 28.8624C28.4051 32.715 24.8322 41.2224 27.0277 48.4632C28.0463 51.8145 30.7536 53.3872 34.1629 52.5375C36.8387 51.8673 38.6858 50.0729 40.0791 47.8247C41.1346 46.1306 41.9843 44.3204 43.0029 42.4151C43.3881 43.0907 43.7365 43.6765 44.0584 44.2781C44.9661 45.9775 45.8158 47.7085 46.7658 49.3868C48.5496 52.5534 51.5684 53.3661 54.7138 51.6298C55.3735 51.2867 56.01 50.9006 56.619 50.474C57.3051 49.9462 57.7537 49.9462 58.3553 50.6693C59.9386 52.5534 62.0496 52.9861 64.3137 52.1839C65.4703 51.7723 66.574 51.2249 67.6016 50.5532C68.3827 50.0254 68.8524 50.1468 69.5385 50.7009C71.7814 52.5111 74.2883 53.0706 77.059 51.9992C78.2412 51.5401 79.3811 50.9437 80.5791 50.5426C80.797 50.4652 81.029 50.4356 81.2594 50.4556C81.4897 50.4756 81.7131 50.5449 81.9144 50.6587C86.6272 54.5377 93.2031 52.2842 94.4961 46.31C94.8022 44.9009 95.0608 44.7795 96.6071 45.3495C96.5836 45.6486 96.5449 45.9463 96.491 46.2414C96.0371 48.1783 96.3538 49.9093 97.9054 51.2656C99.5572 52.7117 101.478 52.8753 103.457 52.147C104.73 51.665 105.965 51.0881 107.152 50.4212C107.859 50.0307 108.329 49.9621 108.994 50.5479C111.58 52.812 114.419 53.2236 117.501 51.5401C117.681 51.4579 117.876 51.4154 118.074 51.4154C118.271 51.4154 118.466 51.4579 118.646 51.5401C119.837 52.2445 121.225 52.5398 122.6 52.3806C123.974 52.2215 125.258 51.6167 126.256 50.6587C126.409 50.5162 126.621 50.3051 126.605 50.131C126.452 48.4791 126.256 46.8219 126.04 44.9167ZM48.1749 37.8923C46.9531 39.3476 45.2822 40.3557 43.4251 40.758L43.9951 38.077C41.9526 38.077 40.0738 38.0295 38.1897 38.1192C37.8889 38.1192 37.4878 38.6997 37.3453 39.085C36.7859 40.6683 36.369 42.2515 35.7621 43.8348C35.3821 44.8376 34.8807 46.1675 33.5719 45.8508C32.263 45.5342 32.5163 44.0934 32.6325 43.0485C33.2447 37.4648 38.0842 32.7783 43.6256 32.3667C44.5863 32.3237 45.5472 32.4487 46.465 32.7361C48.9823 33.4697 49.7107 35.7707 48.1749 37.8923ZM87.0283 47.1386C86.5052 47.1021 86.0144 46.8722 85.6515 46.4936C85.2886 46.1151 85.0795 45.6151 85.0651 45.0909C85.1095 44.5701 85.3545 44.087 85.7484 43.7433C86.1422 43.3997 86.6541 43.2225 87.1761 43.249C87.4262 43.2611 87.6714 43.3228 87.8974 43.4305C88.1235 43.5382 88.3259 43.6897 88.4928 43.8763C88.6598 44.0629 88.788 44.2809 88.87 44.5175C88.952 44.7541 88.9861 45.0046 88.9705 45.2545C88.9392 45.7539 88.7229 46.2237 88.3637 46.5721C88.0046 46.9205 87.5284 47.1225 87.0283 47.1386V47.1386ZM114.044 47.1702C113.517 47.1592 113.015 46.9419 112.646 46.565C112.277 46.1881 112.07 45.6817 112.07 45.1542C112.072 44.9043 112.124 44.6572 112.222 44.4271C112.319 44.197 112.461 43.9885 112.64 43.8135C112.818 43.6385 113.03 43.5004 113.261 43.4071C113.493 43.3139 113.741 43.2673 113.991 43.2701C114.253 43.2673 114.512 43.3163 114.754 43.4142C114.996 43.512 115.217 43.6569 115.403 43.8404C115.589 44.0239 115.736 44.2424 115.837 44.4833C115.939 44.7242 115.991 44.9827 115.992 45.2439C115.949 45.7441 115.73 46.2128 115.373 46.5658C115.016 46.9188 114.545 47.1331 114.044 47.1702Z" fill="white"/>
</svg>
