<svg width="90" height="90" viewBox="0 0 40 40" fill="none" xmlns="http://www.w3.org/2000/svg">
<path fill-rule="evenodd" clip-rule="evenodd" d="M21.25 0.334937C20.87 0.115516 20.4388 0 20 0C19.5612 0 19.13 0.115516 18.75 0.334937L3.75 9.27744C3.36996 9.49685 3.05437 9.81244 2.83495 10.1925C2.61553 10.5725 2.50001 11.0036 2.5 11.4424V28.5574C2.50001 28.9963 2.61553 29.4274 2.83495 29.8074C3.05437 30.1874 3.36996 30.503 3.75 30.7224L18.75 39.6649C19.13 39.8844 19.5612 39.9999 20 39.9999C20.4388 39.9999 20.87 39.8844 21.25 39.6649L36.25 30.7224C36.63 30.503 36.9456 30.1874 37.165 29.8074C37.3845 29.4274 37.5 28.9963 37.5 28.5574V11.4424C37.5 11.0036 37.3845 10.5725 37.165 10.1925C36.9456 9.81244 36.63 9.49685 36.25 9.27744L21.25 0.334937Z" fill="#E1E2E4" fill-opacity="0.7"/>
</svg>
